<?xml version="1.0" encoding="utf-8"?>
<!-- Svg Vector Icons : http://www.onlinewebfonts.com/icon -->
<!DOCTYPE svg PUBLIC "-//W3C//DTD SVG 1.1//EN" "http://www.w3.org/Graphics/SVG/1.1/DTD/svg11.dtd">
<svg version="1.1" xmlns="http://www.w3.org/2000/svg" xmlns:xlink="http://www.w3.org/1999/xlink" x="0px" y="0px" viewBox="0 0 1000 1000" enable-background="new 0 0 1000 1000" xml:space="preserve">
<metadata> Svg Vector Icons : http://www.onlinewebfonts.com/icon </metadata>
<g><g transform="translate(0.000000,511.000000) scale(0.100000,-0.100000)"><path d="M3708.2,4991.3c-1377.6-192-2543.9-1015.2-3165.5-2231.9C-484.4,750.7,336.4-1702,2376.3-2724.4c1063.2-532.8,2207.9-580.8,3311.9-139.2c396,158.4,825.6,415.2,1099.2,657.6c60,50.4,117.6,93.6,129.6,93.6c9.6,0,621.6-602.4,1356-1336.8L9612-4788.3l144,144l144,144L8553.7-3154L7204.9-1805.2l120,141.6c470.4,544.8,799.2,1281.5,909.6,2047.1c52.8,367.2,36,986.4-38.4,1332c-348,1636.7-1627.1,2903.9-3256.7,3230.3C4646.6,5003.3,3977,5027.3,3708.2,4991.3z M4973,4537.7c727.2-160.8,1300.8-475.2,1821.5-996c648-650.4,986.4-1391.9,1068-2332.7c28.8-343.2,4.8-705.6-74.4-1082.4c-230.4-1104-967.2-2035.1-1996.7-2527.1c-475.2-225.6-897.6-328.8-1435.1-352.8c-1060.8-43.2-2001.5,307.2-2745.5,1022.4c-415.2,400.8-715.2,876-912,1437.5c-288,825.6-266.4,1778.3,57.6,2603.9c456,1168.8,1509.5,2023.1,2771.9,2251.1C3866.6,4624.1,4651.4,4612.1,4973,4537.7z"/></g></g>
</svg>